<svg width="40" height="40" viewBox="0 0 40 40" fill="none" xmlns="http://www.w3.org/2000/svg">
<path d="M28.2013 25.799C26.6869 27.3134 23.3295 30.6708 21.4132 32.5872C20.6321 33.3682 19.3677 33.3674 18.5866 32.5863C16.7019 30.7016 13.4163 27.416 11.7993 25.799C7.27002 21.2697 7.27002 13.9263 11.7993 9.39697C16.3286 4.86768 23.672 4.86768 28.2013 9.39697C32.7306 13.9263 32.7306 21.2697 28.2013 25.799Z" stroke="#111827" stroke-width="1.5" stroke-linecap="round" stroke-linejoin="round"/>
<path d="M24.3496 17.598C24.3496 20 22.4023 21.9472 20.0003 21.9472C17.5983 21.9472 15.6511 20 15.6511 17.598C15.6511 15.196 17.5983 13.2487 20.0003 13.2487C22.4023 13.2487 24.3496 15.196 24.3496 17.598Z" stroke="#111827" stroke-width="1.5" stroke-linecap="round" stroke-linejoin="round"/>
</svg>
