<svg width="20" height="20" viewBox="0 0 20 20" fill="none" xmlns="http://www.w3.org/2000/svg">
<path d="M13 14.25V16.7812C13 17.2472 12.6222 17.625 12.1562 17.625H4.84375C4.37776 17.625 4 17.2472 4 16.7812V7.21875C4 6.75276 4.37776 6.375 4.84375 6.375H6.25C6.6333 6.375 7.00914 6.40695 7.375 6.46833M13 14.25H15.5312C15.9972 14.25 16.375 13.8722 16.375 13.4062V9.75C16.375 6.40538 13.9424 3.62892 10.75 3.09333C10.3841 3.03195 10.0083 3 9.625 3H8.21875C7.75276 3 7.375 3.37776 7.375 3.84375V6.46833M13 14.25H8.21875C7.75276 14.25 7.375 13.8722 7.375 13.4062V6.46833M16.375 11.4375V10.0312C16.375 8.63328 15.2417 7.5 13.8438 7.5H12.7188C12.2528 7.5 11.875 7.12224 11.875 6.65625V5.53125C11.875 4.13328 10.7417 3 9.34375 3H8.5" stroke="#374151" stroke-width="1.5" stroke-linecap="round" stroke-linejoin="round"/>
</svg>
