<svg width="20" height="20" viewBox="0 0 20 20" fill="none" xmlns="http://www.w3.org/2000/svg">
<g clip-path="url(#clip0_24_321)">
<path d="M20 10.0007C20 4.47788 15.5229 0.000732422 10 0.000732422C4.47715 0.000732422 0 4.47788 0 10.0007C0 14.9919 3.65684 19.1291 8.4375 19.8792V12.8914H5.89844V10.0007H8.4375V7.79761C8.4375 5.29136 9.93047 3.90698 12.2146 3.90698C13.3084 3.90698 14.4531 4.10229 14.4531 4.10229V6.56323H13.1922C11.95 6.56323 11.5625 7.33413 11.5625 8.12573V10.0007H14.3359L13.8926 12.8914H11.5625V19.8792C16.3432 19.1291 20 14.9919 20 10.0007Z" fill="#EEF2FF"/>
</g>
<defs>
<clipPath id="clip0_24_321">
<rect width="20" height="20" fill="white" transform="translate(0 0.000732422)"/>
</clipPath>
</defs>
</svg>
