<svg width="24" height="25" viewBox="0 0 24 25" fill="none" xmlns="http://www.w3.org/2000/svg">
<path d="M17.9997 19.2191C18.2472 19.2396 18.4975 19.25 18.7503 19.25C19.7987 19.25 20.8051 19.0708 21.7408 18.7413C21.7471 18.6617 21.7503 18.5812 21.7503 18.5C21.7503 16.8431 20.4072 15.5 18.7503 15.5C18.1227 15.5 17.5401 15.6927 17.0585 16.0222M17.9997 19.2191C17.9997 19.2294 17.9998 19.2397 17.9998 19.25C17.9998 19.475 17.9874 19.6971 17.9632 19.9156C16.2065 20.9237 14.1704 21.5 11.9998 21.5C9.82909 21.5 7.79303 20.9237 6.03626 19.9156C6.01214 19.6971 5.99976 19.475 5.99976 19.25C5.99976 19.2397 5.99978 19.2295 5.99983 19.2192M17.9997 19.2191C17.9938 18.0426 17.6492 16.9461 17.0585 16.0222M17.0585 16.0222C15.9926 14.3552 14.1252 13.25 11.9998 13.25C9.87455 13.25 8.00741 14.3549 6.94145 16.0216M6.94145 16.0216C6.45999 15.6925 5.87772 15.5 5.25049 15.5C3.59363 15.5 2.25049 16.8431 2.25049 18.5C2.25049 18.5812 2.25372 18.6617 2.26005 18.7413C3.19568 19.0708 4.20215 19.25 5.25049 19.25C5.50283 19.25 5.75275 19.2396 5.99983 19.2192M6.94145 16.0216C6.35046 16.9457 6.00574 18.0424 5.99983 19.2192M14.9998 7.25C14.9998 8.90685 13.6566 10.25 11.9998 10.25C10.3429 10.25 8.99976 8.90685 8.99976 7.25C8.99976 5.59315 10.3429 4.25 11.9998 4.25C13.6566 4.25 14.9998 5.59315 14.9998 7.25ZM20.9998 10.25C20.9998 11.4926 19.9924 12.5 18.7498 12.5C17.5071 12.5 16.4998 11.4926 16.4998 10.25C16.4998 9.00736 17.5071 8 18.7498 8C19.9924 8 20.9998 9.00736 20.9998 10.25ZM7.49976 10.25C7.49976 11.4926 6.4924 12.5 5.24976 12.5C4.00712 12.5 2.99976 11.4926 2.99976 10.25C2.99976 9.00736 4.00712 8 5.24976 8C6.4924 8 7.49976 9.00736 7.49976 10.25Z" stroke="#3F36BA" stroke-width="1.5" stroke-linecap="round" stroke-linejoin="round"/>
</svg>
