<svg width="20" height="20" viewBox="0 0 20 20" fill="none" xmlns="http://www.w3.org/2000/svg">
<g clipPath="url(#clip0_24_323)">
<path d="M10 1.80151C12.6719 1.80151 12.9883 1.81323 14.0391 1.86011C15.0156 1.90308 15.543 2.06714 15.8945 2.20386C16.3594 2.38355 16.6953 2.6023 17.043 2.94995C17.3945 3.30151 17.6094 3.63355 17.7891 4.09839C17.9258 4.44995 18.0898 4.9812 18.1328 5.95386C18.1797 7.00854 18.1914 7.32495 18.1914 9.99292C18.1914 12.6648 18.1797 12.9812 18.1328 14.032C18.0898 15.0085 17.9258 15.5359 17.7891 15.8875C17.6094 16.3523 17.3906 16.6882 17.043 17.0359C16.6914 17.3875 16.3594 17.6023 15.8945 17.782C15.543 17.9187 15.0117 18.0828 14.0391 18.1257C12.9844 18.1726 12.668 18.1843 10 18.1843C7.32813 18.1843 7.01172 18.1726 5.96094 18.1257C4.98438 18.0828 4.45703 17.9187 4.10547 17.782C3.64063 17.6023 3.30469 17.3835 2.95703 17.0359C2.60547 16.6843 2.39063 16.3523 2.21094 15.8875C2.07422 15.5359 1.91016 15.0046 1.86719 14.032C1.82031 12.9773 1.80859 12.6609 1.80859 9.99292C1.80859 7.32105 1.82031 7.00464 1.86719 5.95386C1.91016 4.97729 2.07422 4.44995 2.21094 4.09839C2.39063 3.63355 2.60938 3.29761 2.95703 2.94995C3.30859 2.59839 3.64063 2.38355 4.10547 2.20386C4.45703 2.06714 4.98828 1.90308 5.96094 1.86011C7.01172 1.81323 7.32813 1.80151 10 1.80151ZM10 0.000732422C7.28516 0.000732422 6.94531 0.0124512 5.87891 0.0593262C4.81641 0.106201 4.08594 0.278076 3.45313 0.52417C2.79297 0.781982 2.23438 1.12183 1.67969 1.68042C1.12109 2.23511 0.78125 2.7937 0.523438 3.44995C0.277344 4.08667 0.105469 4.81323 0.0585938 5.87573C0.0117188 6.94604 0 7.28589 0 10.0007C0 12.7156 0.0117188 13.0554 0.0585938 14.1218C0.105469 15.1843 0.277344 15.9148 0.523438 16.5476C0.78125 17.2078 1.12109 17.7664 1.67969 18.321C2.23438 18.8757 2.79297 19.2195 3.44922 19.4734C4.08594 19.7195 4.8125 19.8914 5.875 19.9382C6.94141 19.9851 7.28125 19.9968 9.99609 19.9968C12.7109 19.9968 13.0508 19.9851 14.1172 19.9382C15.1797 19.8914 15.9102 19.7195 16.543 19.4734C17.1992 19.2195 17.7578 18.8757 18.3125 18.321C18.8672 17.7664 19.2109 17.2078 19.4648 16.5515C19.7109 15.9148 19.8828 15.1882 19.9297 14.1257C19.9766 13.0593 19.9883 12.7195 19.9883 10.0046C19.9883 7.2898 19.9766 6.94995 19.9297 5.88355C19.8828 4.82105 19.7109 4.09058 19.4648 3.45776C19.2188 2.7937 18.8789 2.23511 18.3203 1.68042C17.7656 1.12573 17.207 0.781982 16.5508 0.528076C15.9141 0.281982 15.1875 0.110107 14.125 0.0632324C13.0547 0.0124512 12.7148 0.000732422 10 0.000732422Z" fill="#EEF2FF"/>
<path d="M10 4.86401C7.16406 4.86401 4.86328 7.16479 4.86328 10.0007C4.86328 12.8367 7.16406 15.1375 10 15.1375C12.8359 15.1375 15.1367 12.8367 15.1367 10.0007C15.1367 7.16479 12.8359 4.86401 10 4.86401ZM10 13.3328C8.16016 13.3328 6.66797 11.8406 6.66797 10.0007C6.66797 8.16089 8.16016 6.6687 10 6.6687C11.8398 6.6687 13.332 8.16089 13.332 10.0007C13.332 11.8406 11.8398 13.3328 10 13.3328Z" fill="#EEF2FF"/>
<path d="M16.5391 4.66089C16.5391 5.32495 16 5.86011 15.3398 5.86011C14.6758 5.86011 14.1406 5.32105 14.1406 4.66089C14.1406 3.99683 14.6797 3.46167 15.3398 3.46167C16 3.46167 16.5391 4.00073 16.5391 4.66089Z" fill="#EEF2FF"/>
</g>
<defs>
<clipPath id="clip0_24_323">
<rect width="20" height="20" fill="white" transform="translate(0 0.000732422)"/>
</clipPath>
</defs>
</svg>
