<svg width="239" height="32" viewBox="0 0 239 32" fill="none" xmlns="http://www.w3.org/2000/svg">
<path fillRule="evenodd" clipRule="evenodd" d="M26.4357 11.012L26.7577 10.8388V9.95579C26.7577 9.8021 26.8163 9.6533 26.9212 9.53865C27.0236 9.4362 27.1627 9.37765 27.3066 9.38009H27.9262C28.0701 9.38009 28.2092 9.4362 28.3116 9.53865C28.4141 9.65086 28.4702 9.79723 28.4702 9.95091L30.7242 8.7556C30.7242 8.41409 30.7242 8.09209 30.6998 7.76521C30.6169 6.34548 30.6437 4.92087 30.7779 3.50358C30.9803 2.11557 31.4463 0.937338 32.0366 0.347004C32.183 0.183565 32.3708 0.0640342 32.583 0.00548864C32.6245 0.00304925 32.666 0.00304925 32.7074 0.00548864C32.7562 -0.00182955 32.8074 -0.00182955 32.8562 0.00548864C33.0733 0.0591554 33.2685 0.176246 33.4173 0.342125C34.0223 0.951975 34.4882 2.1302 34.6907 3.51822C34.8273 4.93063 34.8541 6.35036 34.7712 7.76521V8.7556L37.0056 9.96067C37.0008 9.81674 37.0593 9.6777 37.1642 9.58012C37.2667 9.47523 37.4057 9.41668 37.5521 9.41668H38.1619C38.3058 9.41668 38.4425 9.47523 38.5425 9.57524C38.6449 9.6777 38.701 9.81674 38.701 9.96067V10.9072L39.023 11.0803L40.733 11.9976L43.0041 13.227C43.0554 13.2539 43.1041 13.288 43.1432 13.3319C43.2651 13.4514 43.3359 13.6124 43.3408 13.7832V15.0175C43.3554 15.2907 43.148 15.5249 42.8748 15.5396C42.809 15.542 42.7431 15.5347 42.6821 15.5127L36.9471 13.8832C36.8934 13.8783 36.8422 13.8783 36.7885 13.8832H34.6931C34.6394 15.8957 34.5053 19.3353 34.3174 20.8867C34.3174 20.976 34.3024 21.0634 34.2875 21.1501L34.2875 21.1501C34.2784 21.2032 34.2693 21.256 34.2638 21.3087L37.3764 23.9067L37.4155 23.9408C37.5448 24.075 37.6179 24.2507 37.6228 24.436V25.0264C37.6228 25.1605 37.574 25.2874 37.4789 25.3825C37.3398 25.5191 37.1349 25.5606 36.9544 25.4923L33.9808 24.4409C33.9369 24.4385 33.8954 24.4385 33.8515 24.4409H33.5149C33.4393 24.6092 33.3368 24.7654 33.2124 24.902C33.0831 25.0386 32.905 25.1215 32.7172 25.1288C32.5294 25.1215 32.3513 25.0386 32.222 24.902C32.0976 24.7629 31.9951 24.6068 31.9195 24.436H31.5878C31.5438 24.4312 31.4975 24.4312 31.4536 24.436L28.48 25.4874C28.2238 25.5874 27.9384 25.4606 27.8384 25.2045C27.8116 25.1362 27.8018 25.063 27.8067 24.9922V24.4019C27.8116 24.2165 27.8872 24.0409 28.014 23.9067L28.0628 23.8628L31.1755 21.2721C31.1755 21.1877 31.1611 21.1032 31.1465 21.0177C31.1371 20.9624 31.1276 20.9066 31.1218 20.8501C30.9291 19.2987 30.8096 15.8591 30.7608 13.8466H28.5068L22.7718 15.4932C22.5961 15.5444 22.4034 15.4957 22.2766 15.3639C22.1814 15.2688 22.1302 15.1371 22.1327 15.0029V13.7686C22.1351 13.5978 22.2034 13.4368 22.3254 13.3173C22.3668 13.2758 22.4132 13.2392 22.4644 13.2075L24.7404 11.9829L26.4406 11.0169L26.4357 11.012ZM180.744 3.57433C180.744 4.76476 179.778 5.73076 178.588 5.73076C177.398 5.73076 176.432 4.76476 176.432 3.57433C176.432 2.38391 177.398 1.41791 178.588 1.41791C179.778 1.41791 180.744 2.38391 180.744 3.57433ZM180.422 8.4702V25.5874H176.756V8.4702H180.422ZM173.343 24.4974L173.343 24.497V24.4995L173.343 24.4974ZM172.412 21.6649L173.343 24.4974C172.106 25.2802 170.684 25.7216 169.221 25.7753C166.52 25.7753 164.33 23.9067 164.33 20.1744V4.41104H168.006V9.10932H173.056V11.9H168.006V19.5085C168.006 21.5356 168.679 22.4089 169.904 22.4089C170.787 22.3601 171.646 22.1064 172.412 21.6649ZM154.448 11.2706C153.001 11.2706 151.94 11.7658 151.94 12.9757C151.94 14.2863 153.515 14.757 155.353 15.3063C157.934 16.0781 161.035 17.0048 161.015 20.633C161.015 24.1409 157.892 25.7167 154.448 25.7167C151.94 25.7167 149.269 24.8849 147.564 23.3383L148.881 20.6964C150.503 22.0259 152.528 22.7675 154.626 22.8016C156.202 22.8016 157.426 22.2577 157.426 20.9672C157.426 19.4605 155.764 18.9628 153.87 18.3957C151.354 17.6424 148.429 16.7667 148.447 13.2416C148.447 9.77282 151.469 8.28479 154.755 8.28479C156.878 8.26528 158.961 8.87024 160.742 10.0241L159.388 12.7586C157.9 11.839 156.195 11.3243 154.446 11.2657L154.448 11.2706ZM145.661 22.2284L143.505 20.2451V20.25C142.295 21.8015 140.446 22.7163 138.48 22.7431C136.326 22.8138 134.355 21.5283 133.554 19.5255L146.015 15.7884C145.722 11.1242 142.6 8.26039 137.936 8.32382C132.657 8.38724 129.342 11.8268 129.342 17.0105C129.342 22.1942 132.984 25.6972 138.262 25.6972C141.136 25.7655 143.875 24.4824 145.661 22.2284ZM142.458 14.054L133.042 16.8544C133.042 13.2612 135.04 11.334 138.177 11.3194C140.204 11.3194 141.651 12.122 142.458 14.054ZM125.48 25.5874V8.47018L121.777 8.47506V16.9007C121.777 19.8939 120.052 22.1796 117.079 22.243C114.603 22.243 113.09 20.6647 113.09 18.0887V8.47018H109.387V19.1157C109.387 23.2041 111.737 25.7118 115.662 25.7118C118.462 25.7118 120.618 24.6263 121.777 22.243V25.5874H125.48ZM193.227 25.7167C198.511 25.7167 202.148 22.1772 202.148 16.9983C202.148 11.8439 198.511 8.34091 193.227 8.34091C187.943 8.34091 184.306 11.8195 184.306 16.9983C184.306 22.1772 187.943 25.7167 193.227 25.7167ZM193.232 22.6309C190.146 22.6309 187.99 20.3745 187.99 17.0642C187.99 13.7783 190.175 11.4926 193.232 11.4926C196.288 11.4926 198.445 13.7515 198.445 17.0642C198.445 20.3769 196.318 22.6309 193.232 22.6309ZM222.395 14.937V25.5874H218.692V15.9689C218.692 13.3929 217.15 11.8146 214.574 11.8146C211.745 11.8439 209.976 13.7978 209.717 16.4836V25.5874H206.014V8.4702H209.717V11.7512C210.937 9.3679 213.128 8.34091 216.021 8.34091C220.014 8.34091 222.395 10.8486 222.395 14.937ZM229.669 12.9757C229.669 11.7658 230.735 11.2706 232.182 11.2706V11.2657C233.924 11.3267 235.619 11.8414 237.102 12.7586L238.456 10.0241C236.675 8.87024 234.592 8.26528 232.47 8.28479C229.189 8.28479 226.161 9.77282 226.161 13.2416C226.143 16.7667 229.068 17.6424 231.584 18.3957C233.478 18.9628 235.141 19.4605 235.141 20.9672C235.141 22.2577 233.921 22.8016 232.34 22.8016C230.247 22.7626 228.23 22.021 226.61 20.6964L225.293 23.3383C226.998 24.8849 229.669 25.7167 232.182 25.7167C235.626 25.7167 238.749 24.1409 238.749 20.633C238.766 17.005 235.665 16.0782 233.082 15.3064C231.244 14.7571 229.669 14.2864 229.669 12.9757ZM96.2788 25.5691C102.073 24.8144 106.36 20.2117 106.36 14.4126C106.36 8.07013 101.22 3.21329 94.5899 3.21329C87.9596 3.21329 82.8149 8.06281 82.8149 14.4126C82.8149 19.0972 85.6152 23.001 89.7462 24.7264C87.6402 25.0982 86.001 25.8265 86.001 25.8265H86.0034L87.4207 29.6076C88.9356 29.027 90.5553 28.7587 92.1775 28.8197C92.1775 28.8197 93.2436 28.6294 96.588 30.1174C98.2492 30.9053 99.9787 31.5371 101.757 32.0006L103.843 28.0659C99.9421 27.1847 99.048 26.7894 97.2858 26.0101C96.9824 25.8759 96.6534 25.7304 96.2788 25.5691ZM86.6253 14.4126C86.6448 18.8083 90.2234 22.3577 94.6192 22.343C98.9662 22.2747 102.433 18.6961 102.364 14.3491C102.296 10.0021 98.7174 6.53575 94.3704 6.60405C90.0965 6.67235 86.657 10.1387 86.6253 14.4126ZM19.664 12.4269C19.664 6.56747 15.9317 2.93521 9.78198 2.93521C3.73228 2.93521 0 6.56747 0 12.4269V25.5899H3.7957V19.5743H15.8975V25.5899H19.664V12.4269ZM3.79814 12.4245C3.76643 8.66291 6.05214 6.34305 9.81857 6.34305C13.6143 6.34305 15.861 8.66291 15.9 12.4245V16.1909H3.76887L3.79814 12.4245ZM63.6342 17.0935C63.6342 22.2138 60.4118 25.7167 55.5208 25.7167C52.7862 25.7167 50.7225 24.6263 49.4686 22.6285V31.8323H45.7656V8.4702H49.4686V11.4438C50.7225 9.46059 52.7838 8.35554 55.4549 8.35554C60.3166 8.34091 63.6318 11.9 63.6318 17.0935H63.6342ZM59.897 16.9642C59.897 13.7783 57.7406 11.4292 54.6841 11.4292C51.6275 11.4292 49.4711 13.749 49.4711 16.9642C49.4711 20.1793 51.6275 22.565 54.6841 22.565C57.7406 22.565 59.897 20.2452 59.897 16.9642ZM72.9818 21.8259C72.4671 22.1479 71.8792 22.3357 71.2718 22.3723C70.3107 22.3723 69.696 21.7625 69.696 20.3745V1.71063H66.0295V20.7843C66.0295 24.0701 67.8981 25.7753 70.2765 25.7753C71.4035 25.7484 72.5086 25.4289 73.477 24.8483L72.9818 21.8259Z" fill="#FFC100"/>
</svg>
