<svg width="239" height="32" viewBox="0 0 239 32" fill="none" xmlns="http://www.w3.org/2000/svg">
<path fill-rule="evenodd" clip-rule="evenodd" d="M26.4357 11.0118L26.7577 10.8386V9.95554C26.7577 9.80186 26.8163 9.65306 26.9212 9.53841C27.0236 9.43595 27.1627 9.37741 27.3066 9.37985H27.9262C28.0701 9.37985 28.2092 9.43595 28.3116 9.53841C28.4141 9.65062 28.4702 9.79698 28.4702 9.95066L30.7242 8.75536C30.7242 8.41384 30.7242 8.09184 30.6998 7.76497C30.6169 6.34524 30.6437 4.92063 30.7779 3.50334C30.9803 2.11532 31.4463 0.937094 32.0366 0.34676C32.183 0.18332 32.3708 0.06379 32.583 0.0052445C32.6245 0.0028051 32.666 0.0028051 32.7074 0.0052445C32.7562 -0.00207369 32.8074 -0.00207369 32.8562 0.0052445C33.0733 0.0589112 33.2685 0.176002 33.4173 0.341881C34.0223 0.95173 34.4882 2.12996 34.6907 3.51798C34.8273 4.93039 34.8541 6.35011 34.7712 7.76497V8.75536L37.0056 9.96042C37.0008 9.8165 37.0593 9.67745 37.1642 9.57988C37.2667 9.47498 37.4057 9.41644 37.5521 9.41644H38.1619C38.3058 9.41644 38.4425 9.47498 38.5425 9.575C38.6449 9.67745 38.701 9.8165 38.701 9.96042V10.9069L39.023 11.0801L40.733 11.9973L43.0041 13.2268C43.0554 13.2536 43.1041 13.2878 43.1432 13.3317C43.2651 13.4512 43.3359 13.6122 43.3408 13.783V15.0173C43.3554 15.2905 43.148 15.5247 42.8748 15.5393C42.809 15.5418 42.7431 15.5344 42.6821 15.5125L36.9471 13.883C36.8934 13.8781 36.8422 13.8781 36.7885 13.883H34.6931C34.6394 15.8955 34.5053 19.335 34.3174 20.8865C34.3174 20.9757 34.3024 21.0631 34.2875 21.1498L34.2875 21.1499C34.2784 21.2029 34.2693 21.2557 34.2638 21.3085L37.3764 23.9065L37.4155 23.9406C37.5448 24.0748 37.6179 24.2504 37.6228 24.4358V25.0261C37.6228 25.1603 37.574 25.2872 37.4789 25.3823C37.3398 25.5189 37.1349 25.5604 36.9544 25.4921L33.9808 24.4407C33.9369 24.4382 33.8954 24.4382 33.8515 24.4407H33.5149C33.4393 24.609 33.3368 24.7651 33.2124 24.9017C33.0831 25.0383 32.905 25.1213 32.7172 25.1286C32.5294 25.1213 32.3513 25.0383 32.222 24.9017C32.0976 24.7627 31.9951 24.6066 31.9195 24.4358H31.5878C31.5438 24.4309 31.4975 24.4309 31.4536 24.4358L28.48 25.4872C28.2238 25.5872 27.9384 25.4603 27.8384 25.2042C27.8116 25.1359 27.8018 25.0627 27.8067 24.992V24.4016C27.8116 24.2163 27.8872 24.0406 28.014 23.9065L28.0628 23.8625L31.1755 21.2719C31.1755 21.1874 31.1611 21.103 31.1465 21.0174C31.1371 20.9621 31.1276 20.9064 31.1218 20.8499C30.9291 19.2984 30.8096 15.8589 30.7608 13.8464H28.5068L22.7718 15.493C22.5961 15.5442 22.4034 15.4954 22.2766 15.3637C22.1814 15.2685 22.1302 15.1368 22.1327 15.0027V13.7683C22.1351 13.5976 22.2034 13.4366 22.3254 13.317C22.3668 13.2756 22.4132 13.239 22.4644 13.2073L24.7404 11.9827L26.4406 11.0167L26.4357 11.0118ZM180.744 3.57409C180.744 4.76452 179.778 5.73052 178.588 5.73052C177.398 5.73052 176.432 4.76452 176.432 3.57409C176.432 2.38366 177.398 1.41766 178.588 1.41766C179.778 1.41766 180.744 2.38366 180.744 3.57409ZM180.422 8.46996V25.5872H176.756V8.46996H180.422ZM173.343 24.4972L173.343 24.4968V24.4992L173.343 24.4972ZM172.412 21.6646L173.343 24.4972C172.106 25.28 170.684 25.7214 169.221 25.775C166.52 25.775 164.33 23.9065 164.33 20.1742V4.4108H168.006V9.10907H173.056V11.8997H168.006V19.5082C168.006 21.5354 168.679 22.4087 169.904 22.4087C170.787 22.3599 171.646 22.1062 172.412 21.6646ZM154.448 11.2704C153.001 11.2704 151.94 11.7656 151.94 12.9755C151.94 14.286 153.515 14.7568 155.353 15.3061C157.934 16.0778 161.035 17.0046 161.015 20.6328C161.015 24.1406 157.892 25.7165 154.448 25.7165C151.94 25.7165 149.269 24.8846 147.564 23.3381L148.881 20.6962C150.503 22.0257 152.528 22.7672 154.626 22.8014C156.202 22.8014 157.426 22.2574 157.426 20.967C157.426 19.4603 155.764 18.9626 153.87 18.3955C151.354 17.6422 148.429 16.7664 148.447 13.2414C148.447 9.77258 151.469 8.28455 154.755 8.28455C156.878 8.26503 158.961 8.87 160.742 10.0238L159.388 12.7584C157.9 11.8387 156.195 11.324 154.446 11.2655L154.448 11.2704ZM145.661 22.2281L143.505 20.2449V20.2498C142.295 21.8012 140.446 22.716 138.48 22.7428C136.326 22.8136 134.355 21.528 133.554 19.5253L146.015 15.7881C145.722 11.124 142.6 8.26015 137.936 8.32357C132.657 8.387 129.342 11.8265 129.342 17.0103C129.342 22.194 132.984 25.697 138.262 25.697C141.136 25.7653 143.875 24.4821 145.661 22.2281ZM142.458 14.0537L133.042 16.8541C133.042 13.2609 135.04 11.3338 138.177 11.3192C140.204 11.3192 141.651 12.1217 142.458 14.0537ZM125.48 25.5872V8.46994L121.777 8.47482V16.9005C121.777 19.8936 120.052 22.1793 117.079 22.2428C114.603 22.2428 113.09 20.6645 113.09 18.0885V8.46994H109.387V19.1155C109.387 23.2039 111.737 25.7116 115.662 25.7116C118.462 25.7116 120.618 24.6261 121.777 22.2428V25.5872H125.48ZM193.227 25.7165C198.511 25.7165 202.148 22.1769 202.148 16.9981C202.148 11.8436 198.511 8.34067 193.227 8.34067C187.943 8.34067 184.306 11.8192 184.306 16.9981C184.306 22.1769 187.943 25.7165 193.227 25.7165ZM193.232 22.6306C190.146 22.6306 187.99 20.3742 187.99 17.0639C187.99 13.7781 190.175 11.4924 193.232 11.4924C196.288 11.4924 198.445 13.7512 198.445 17.0639C198.445 20.3766 196.318 22.6306 193.232 22.6306ZM222.395 14.9368V25.5872H218.692V15.9687C218.692 13.3927 217.15 11.8144 214.574 11.8144C211.745 11.8436 209.976 13.7976 209.717 16.4834V25.5872H206.014V8.46996H209.717V11.7509C210.937 9.36765 213.128 8.34067 216.021 8.34067C220.014 8.34067 222.395 10.8484 222.395 14.9368ZM229.669 12.9755C229.669 11.7656 230.735 11.2704 232.182 11.2704V11.2655C233.924 11.3265 235.619 11.8412 237.102 12.7584L238.456 10.0238C236.675 8.87 234.592 8.26503 232.47 8.28455C229.189 8.28455 226.161 9.77258 226.161 13.2414C226.143 16.7664 229.068 17.6422 231.584 18.3955C233.478 18.9626 235.141 19.4603 235.141 20.967C235.141 22.2574 233.921 22.8014 232.34 22.8014C230.247 22.7624 228.23 22.0208 226.61 20.6962L225.293 23.3381C226.998 24.8846 229.669 25.7165 232.182 25.7165C235.626 25.7165 238.749 24.1406 238.749 20.6328C238.766 17.0047 235.665 16.0779 233.082 15.3062C231.244 14.7569 229.669 14.2861 229.669 12.9755ZM96.2788 25.5688C102.073 24.8142 106.36 20.2114 106.36 14.4123C106.36 8.06988 101.22 3.21304 94.5899 3.21304C87.9596 3.21304 82.8149 8.06256 82.8149 14.4123C82.8149 19.0969 85.6152 23.0008 89.7462 24.7261C87.6402 25.098 86.001 25.8263 86.001 25.8263H86.0034L87.4207 29.6073C88.9356 29.0268 90.5553 28.7584 92.1775 28.8194C92.1775 28.8194 93.2436 28.6291 96.588 30.1172C98.2492 30.9051 99.9787 31.5369 101.757 32.0004L103.843 28.0656C99.9421 27.1845 99.048 26.7891 97.2858 26.0098C96.9824 25.8757 96.6534 25.7302 96.2788 25.5688ZM86.6253 14.4123C86.6448 18.8081 90.2234 22.3574 94.6192 22.3428C98.9662 22.2745 102.433 18.6959 102.364 14.3489C102.296 10.0019 98.7174 6.5355 94.3704 6.6038C90.0965 6.67211 86.657 10.1385 86.6253 14.4123ZM19.664 12.4267C19.664 6.56723 15.9317 2.93497 9.78198 2.93497C3.73228 2.93497 0 6.56723 0 12.4267V25.5896H3.7957V19.5741H15.8975V25.5896H19.664V12.4267ZM3.79814 12.4242C3.76643 8.66267 6.05214 6.3428 9.81857 6.3428C13.6143 6.3428 15.861 8.66267 15.9 12.4242V16.1906H3.76887L3.79814 12.4242ZM63.6342 17.0932C63.6342 22.2135 60.4118 25.7165 55.5208 25.7165C52.7862 25.7165 50.7225 24.6261 49.4686 22.6282V31.8321H45.7656V8.46995H49.4686V11.4436C50.7225 9.46035 52.7838 8.3553 55.4549 8.3553C60.3166 8.34066 63.6318 11.8997 63.6318 17.0932H63.6342ZM59.897 16.9639C59.897 13.7781 57.7406 11.4289 54.6841 11.4289C51.6275 11.4289 49.4711 13.7488 49.4711 16.9639C49.4711 20.1791 51.6275 22.5648 54.6841 22.5648C57.7406 22.5648 59.897 20.2449 59.897 16.9639ZM72.9818 21.8257C72.4671 22.1477 71.8792 22.3355 71.2718 22.3721C70.3107 22.3721 69.696 21.7622 69.696 20.3742V1.71039H66.0295V20.784C66.0295 24.0699 67.8981 25.775 70.2765 25.775C71.4035 25.7482 72.5086 25.4286 73.477 24.8481L72.9818 21.8257Z" fill="#FFC100"/>
</svg>
