<svg width="20" height="20" viewBox="0 0 20 20" fill="none" xmlns="http://www.w3.org/2000/svg">
<path d="M7.5 5.625V12.5M12.5 7.5V14.375M12.9193 17.2904L16.9818 15.2591C17.2994 15.1003 17.5 14.7757 17.5 14.4206V4.01691C17.5 3.31999 16.7666 2.86671 16.1432 3.17838L12.9193 4.79037C12.6553 4.92233 12.3447 4.92233 12.0807 4.79037L7.91926 2.70963C7.65533 2.57767 7.34467 2.57767 7.08074 2.70963L3.01824 4.74088C2.70063 4.89969 2.5 5.22431 2.5 5.57941V15.9831C2.5 16.68 3.23342 17.1333 3.85676 16.8216L7.08074 15.2096C7.34467 15.0777 7.65533 15.0777 7.91926 15.2096L12.0807 17.2904C12.3447 17.4223 12.6553 17.4223 12.9193 17.2904Z" stroke="#482200" stroke-width="1.5" stroke-linecap="round" stroke-linejoin="round"/>
</svg>
