<svg width="40" height="40" viewBox="0 0 40 40" fill="none" xmlns="http://www.w3.org/2000/svg">
<path d="M36.25 11.25V28.75C36.25 30.8211 34.5711 32.5 32.5 32.5H7.5C5.42893 32.5 3.75 30.8211 3.75 28.75V11.25M36.25 11.25C36.25 9.17893 34.5711 7.5 32.5 7.5H7.5C5.42893 7.5 3.75 9.17893 3.75 11.25M36.25 11.25V11.6545C36.25 12.9567 35.5744 14.1657 34.4654 14.8482L21.9654 22.5405C20.7601 23.2823 19.2399 23.2823 18.0346 22.5405L5.53463 14.8482C4.42558 14.1657 3.75 12.9567 3.75 11.6545V11.25" stroke="#111827" strokeWidth="1.5" strokeLinecap="round" strokeLinejoin="round"/>
</svg>
