<svg width="24" height="25" viewBox="0 0 24 25" fill="none" xmlns="http://www.w3.org/2000/svg">
<path d="M5.57973 17.9168C7.47592 16.845 9.66658 16.2333 12.0001 16.2333C14.3336 16.2333 16.5243 16.845 18.4205 17.9168M14.8001 10.6333C14.8001 12.1797 13.5465 13.4333 12.0001 13.4333C10.4537 13.4333 9.2001 12.1797 9.2001 10.6333C9.2001 9.08691 10.4537 7.83331 12.0001 7.83331C13.5465 7.83331 14.8001 9.08691 14.8001 10.6333ZM20.4001 12.5C20.4001 17.1392 16.6393 20.9 12.0001 20.9C7.36091 20.9 3.6001 17.1392 3.6001 12.5C3.6001 7.86078 7.36091 4.09998 12.0001 4.09998C16.6393 4.09998 20.4001 7.86078 20.4001 12.5Z" stroke="#3F36BA" stroke-width="1.5" stroke-linecap="round" stroke-linejoin="round"/>
</svg>
