<svg width="24" height="24" viewBox="0 0 24 24" fill="none" xmlns="http://www.w3.org/2000/svg">
<path fill-rule="evenodd" clip-rule="evenodd" d="M12.0001 20.4C16.6393 20.4 20.4001 16.6392 20.4001 12C20.4001 7.36078 16.6393 3.59998 12.0001 3.59998C7.36091 3.59998 3.6001 7.36078 3.6001 12C3.6001 16.6392 7.36091 20.4 12.0001 20.4ZM15.8926 10.6424C16.3026 10.2324 16.3026 9.56756 15.8926 9.15751C15.4825 8.74746 14.8177 8.74746 14.4076 9.15751L10.9501 12.6151L9.59256 11.2575C9.18251 10.8475 8.51769 10.8475 8.10764 11.2575C7.69759 11.6676 7.69759 12.3324 8.10764 12.7424L10.2076 14.8424C10.6177 15.2525 11.2825 15.2525 11.6926 14.8424L15.8926 10.6424Z" fill="#22C55E"/>
</svg>
