<svg width="20" height="20" viewBox="0 0 20 20" fill="none" xmlns="http://www.w3.org/2000/svg">
<path d="M6.2918 18.1258C13.8371 18.1258 17.9652 11.8731 17.9652 6.4524C17.9652 6.27662 17.9613 6.09694 17.9535 5.92115C18.7566 5.34041 19.4496 4.62107 20 3.79694C19.2521 4.12969 18.458 4.34701 17.6449 4.44147C18.5011 3.92828 19.1421 3.12208 19.4492 2.17233C18.6438 2.64965 17.763 2.98636 16.8445 3.16803C16.2257 2.51049 15.4075 2.07512 14.5164 1.92923C13.6253 1.78334 12.711 1.93506 11.9148 2.36093C11.1186 2.78681 10.4848 3.46311 10.1115 4.28528C9.73825 5.10745 9.64619 6.0297 9.84961 6.90944C8.21874 6.8276 6.62328 6.40394 5.16665 5.66594C3.71002 4.92793 2.42474 3.89205 1.39414 2.62545C0.870333 3.52856 0.710047 4.59723 0.945859 5.61426C1.18167 6.6313 1.79589 7.52039 2.66367 8.10084C2.01219 8.08016 1.37498 7.90475 0.804688 7.58912V7.6399C0.804104 8.58765 1.13175 9.50634 1.73192 10.2398C2.3321 10.9733 3.16777 11.4763 4.09687 11.6633C3.49338 11.8285 2.85999 11.8525 2.2457 11.7337C2.50788 12.5487 3.01798 13.2616 3.70481 13.7728C4.39164 14.284 5.22093 14.568 6.07695 14.5852C4.62369 15.7268 2.82848 16.346 0.980469 16.343C0.652739 16.3425 0.325333 16.3224 0 16.2829C1.87738 17.4873 4.06128 18.127 6.2918 18.1258Z" fill="#EEF2FF"/>
</svg>
