<svg width="57" height="56" viewBox="0 0 57 56" fill="none" xmlns="http://www.w3.org/2000/svg">
<path fillRule="evenodd" clipRule="evenodd" d="M23.5831 14.0397C25.7676 10.2534 31.2322 10.2534 33.4167 14.0397L47.3319 38.1594C49.5151 41.9436 46.7839 46.6723 42.4151 46.6723H14.5847C10.2159 46.6723 7.48474 41.9436 9.66794 38.1594L23.5831 14.0397ZM28.5003 23.9669C29.284 23.9669 29.9194 24.6022 29.9194 25.3859V32.4814C29.9194 33.2651 29.284 33.9004 28.5003 33.9004C27.7166 33.9004 27.0812 33.2651 27.0812 32.4814V25.3859C27.0812 24.6022 27.7166 23.9669 28.5003 23.9669ZM28.5003 39.5768C29.284 39.5768 29.9194 38.9414 29.9194 38.1577C29.9194 37.3739 29.284 36.7386 28.5003 36.7386C27.7166 36.7386 27.0812 37.3739 27.0812 38.1577C27.0812 38.9414 27.7166 39.5768 28.5003 39.5768Z" fill="#EF4444"/>
</svg>
